<svg id="Layer_1" data-name="Layer 1" xmlns="http://www.w3.org/2000/svg" viewBox="0 0 895.83 203.63"><defs><style>.cls-1{fill:#2d2e83;}.cls-2{fill:#d5a361;}</style></defs><g id="Layer_2" data-name="Layer 2"><g id="Layer_1-2" data-name="Layer 1-2"><polygon class="cls-1" points="252.81 75.2 198.04 75.2 191.8 85.42 185.57 75.2 130.79 75.2 130.79 99.98 252.81 99.98 252.81 75.2"/><polygon class="cls-1" points="168.57 47.33 130.79 47.33 130.79 72.1 183.68 72.1 168.57 47.33"/><polygon class="cls-1" points="252.81 47.33 215.03 47.33 199.92 72.1 252.81 72.1 252.81 47.33"/><path class="cls-1" d="M372.47,155.72h60.07c24.54,0,38.5-10.19,41.15-24.78H372.47Z"/><path class="cls-1" d="M432.54,47.33H372.47V72.1H473.69C471,57.52,457.08,47.33,432.54,47.33"/><path class="cls-1" d="M456.39,100c10.66-4.13,17.31-11.13,17.31-23.63v-.3a4.85,4.85,0,0,0-.05-.85H262.89A52.61,52.61,0,0,0,256,100Z"/><rect class="cls-1" x="476.83" y="47.33" width="36.24" height="24.78"/><rect class="cls-1" x="372.47" y="103.07" width="140.59" height="24.78"/><rect class="cls-1" x="476.83" y="130.94" width="36.24" height="24.78"/><rect class="cls-2" x="606.53" y="75.2" width="36.24" height="24.78"/><rect class="cls-2" x="606.53" y="103.07" width="36.24" height="24.78"/><rect class="cls-1" x="516.21" width="102.47" height="24.77"/><rect class="cls-1" x="345.89" y="178.81" width="183.43" height="24.47"/><rect class="cls-1" x="768.22" y="130.95" width="127.61" height="24.78"/><rect class="cls-2" x="606.53" y="130.94" width="36.24" height="24.78"/><rect class="cls-2" x="606.53" y="47.33" width="139.41" height="24.78"/><rect class="cls-2" x="677.8" y="75.2" width="36.24" height="24.78"/><rect class="cls-2" x="677.8" y="103.07" width="36.24" height="24.78"/><rect class="cls-2" x="677.8" y="130.94" width="36.24" height="24.78"/><rect class="cls-1" x="516.21" y="47.33" width="36.23" height="24.78"/><rect class="cls-1" x="476.83" y="75.2" width="75.61" height="24.78"/><rect class="cls-1" x="516.21" y="103.07" width="36.23" height="24.78"/><rect class="cls-1" x="516.21" y="130.94" width="87.18" height="24.78"/><path class="cls-1" d="M312.79,47.33c-20.49,0-38,9.82-48,24.77H360.7c-9.87-15-27.33-24.77-47.91-24.77"/><path class="cls-1" d="M312.49,155.72c20.49,0,38-9.82,48-24.78h-95.9c9.87,15,27.32,24.78,47.9,24.78"/><path class="cls-1" d="M88.79,103.07v24.78H362.4a52.74,52.74,0,0,0,6.93-24.78Z"/><rect class="cls-2" x="226.37" y="82.88" width="128.62" height="9.42"/><rect class="cls-2" x="322.39" y="7.68" width="128.62" height="9.42"/><rect class="cls-2" x="459.25" y="110.75" width="128.62" height="9.42"/><rect class="cls-2" x="631.6" y="173.52" width="128.62" height="9.42"/><rect class="cls-1" x="687.27" y="82.88" width="128.62" height="9.42"/><rect class="cls-1" x="193.35" y="130.94" width="59.46" height="24.78"/><rect class="cls-1" x="130.79" y="130.94" width="59.46" height="24.78"/><rect class="cls-2" x="36.24" y="138.63" width="128.62" height="9.42"/><rect class="cls-1" y="103.07" width="24.78" height="24.78"/><path class="cls-2" d="M319.6,200a4.1,4.1,0,0,1-2-.51L324,185.74a15.3,15.3,0,0,1,.79,5.29c0,5.63-1.76,9-5.21,9m-4.36-3.49a15.37,15.37,0,0,1-.87-5.49c0-5.67,1.8-9,5.23-9a3.82,3.82,0,0,1,2.14.56Zm4.36,6.88c5.7,0,8.87-4.73,8.87-12.37s-3.17-12.37-8.87-12.37-8.88,4.73-8.88,12.37,3.17,12.37,8.88,12.37m-34.53-.28h15.17v-3.38h-9.36l6.9-8.76a8.78,8.78,0,0,0,2-5.5c0-4.15-2.62-6.84-7-6.84a7.07,7.07,0,0,0-7.21,6.49l3.48.66c.31-2.31,1.66-3.77,3.7-3.77a3.25,3.25,0,0,1,3.39,3.56c0,1.46-.42,2.59-1.94,4.5l-9.09,11.47ZM265.7,200a4.1,4.1,0,0,1-2-.51l6.43-13.76a15.08,15.08,0,0,1,.8,5.29c0,5.63-1.76,9-5.22,9m-4.36-3.49a15.81,15.81,0,0,1-.86-5.49c0-5.67,1.79-9,5.22-9a3.82,3.82,0,0,1,2.14.56Zm4.36,6.88c5.7,0,8.88-4.73,8.88-12.37s-3.18-12.37-8.88-12.37-8.92,4.69-8.92,12.33,3.18,12.37,8.88,12.37m-34.52-.28h15.17v-3.38H237l6.88-8.74a8.73,8.73,0,0,0,2-5.5c0-4.15-2.62-6.84-7-6.84a7.07,7.07,0,0,0-7.22,6.49l3.49.66c.31-2.31,1.65-3.77,3.69-3.77a3.25,3.25,0,0,1,3.39,3.56c0,1.46-.41,2.59-1.93,4.5l-9.09,11.47Z"/><path class="cls-1" d="M144.39,185.71c-1-2.38-2.65-3.56-4.82-3.56-2.62,0-4.29,1.36-4.29,3.67a2.72,2.72,0,0,0,1.29,2.51,18.33,18.33,0,0,0,4.22,1.53,15,15,0,0,1,3.91,1.4c1.87,1,2.75,2.31,2.86,4.79,0,5-3.1,7.58-7.89,7.58-4.59,0-8-2.48-8.88-7.07l2.79-1.09c.92,3.54,3,5.31,6.09,5.31s4.89-1.5,4.89-4.32a3,3,0,0,0-.85-2.18,3.08,3.08,0,0,0-1.15-.64,17.53,17.53,0,0,0-3.4-1.06,15.48,15.48,0,0,1-3.84-1.32c-1.91-1-2.89-2.49-3-5.34a6.28,6.28,0,0,1,1.94-4.76,7.29,7.29,0,0,1,5.34-1.87,7.61,7.61,0,0,1,7.44,5.1Z"/><path class="cls-1" d="M167.89,179.56h3v23.8h-3.26l-10-18.36v18.36h-3v-23.8h3.27l10,18.36Z"/><path class="cls-1" d="M193.49,203.36H179v-2.58h5.74V182.15H179v-2.59h14.48v2.59h-5.75v18.63h5.75Z"/><path class="cls-1" d="M219.19,196.39c-1.09,4.39-4.08,7.24-8.53,7.24a9.09,9.09,0,0,1-7.07-3.13c-1.84-2.07-2.76-5.1-2.76-9s.92-7,2.76-9a9.09,9.09,0,0,1,7.07-3.13c4.45,0,7.44,2.86,8.53,7.24l-2.82.85c-1.09-3.53-2.75-5.23-5.71-5.23-4.22,0-6.73,3-6.73,9.31s2.51,9.32,6.73,9.32c3,0,4.62-1.7,5.71-5.24Z"/></g></g></svg>